<svg xmlns="http://www.w3.org/2000/svg" width="24.349" height="24.349" viewBox="0 0 24.349 24.349"><defs><style>.a{fill:#2525ce;}</style></defs><path class="a" d="M2.435,85.333H0v17.044a2.434,2.434,0,0,0,2.435,2.435H19.479v-2.435H2.435Z" transform="translate(0 -80.463)"/><path class="a" d="M102.377,0H87.768a2.434,2.434,0,0,0-2.435,2.435V17.044a2.434,2.434,0,0,0,2.435,2.435h14.609a2.434,2.434,0,0,0,2.435-2.435V2.435A2.434,2.434,0,0,0,102.377,0ZM101.16,10.957H96.29v4.87H93.855v-4.87h-4.87V8.522h4.87V3.652H96.29v4.87h4.87Z" transform="translate(-80.463)"/></svg>