<svg xmlns="http://www.w3.org/2000/svg" width="27.641" height="26.27" viewBox="0 0 27.641 26.27"><defs><style>.a{fill:#2525ce;}.b{fill:#232328;}.c{fill:#d62db6;}</style></defs><g transform="translate(0.004 0)"><path class="a" d="M109.667,137.162c-.037-.032-.014-.115,0-.172a6.5,6.5,0,0,0,.057-.688c.064-.434.072-.819.115-1.2a12.064,12.064,0,0,1,.573-2.351,14.475,14.475,0,0,1,.86-2.236,37.017,37.017,0,0,1,2.064-3.153,18.286,18.286,0,0,1,1.089-1.491,12.224,12.224,0,0,1,1.548-1.548,4,4,0,0,1,1.147-.745,3.1,3.1,0,0,1,.975-.229,6.764,6.764,0,0,1,2.809.8c.045.018.752.311,1.433.516a5.522,5.522,0,0,0,.745.172s.265.042.516.057a5.955,5.955,0,0,0,2.408-.975,5.9,5.9,0,0,1,2.58-.975,4.128,4.128,0,0,1,1.949.459c2.58,1.188,3.915,3.795,4.7,5.332A21.952,21.952,0,0,1,136.557,132c.022.069.148.524.4,1.433a5.98,5.98,0,0,1,.287,1.319c.017.263-.011.2,0,.86,0,.118.01.539,0,1.032-.011.527-.032.649-.115.688-.122.057-.313-.1-.516-.287a8.277,8.277,0,0,1-1.032-1.147,6.628,6.628,0,0,0-1.663-1.2c-1.312-.816-2.343-1.458-2.695-1.147-.148.131-.014.287-.172.631a1.69,1.69,0,0,1-1.605.86,1.2,1.2,0,0,1-.917-.4,1.457,1.457,0,0,1-.115-.975c.048-.535.214-.825.057-.975a.269.269,0,0,0-.287-.057c-.229.128.052.745-.057,1.777-.048.451-.134.64-.287.745s-.266.075-.631.057c-.057,0-.554,0-1.548,0-.229,0-.459-.005-.688,0-.546.012-.678.044-.86-.057a.95.95,0,0,1-.4-.516,4.422,4.422,0,0,1-.057-.975c.014-.122.028-.142.057-.344.049-.34.024-.382,0-.4a.245.245,0,0,0-.287.057c-.094.095-.076.236-.057.459a10.828,10.828,0,0,1,0,1.147.526.526,0,0,1-.115.344.468.468,0,0,1-.172.115.9.9,0,0,1-.459.057c-.5-.065-1.574-.11-2.007-.115-.6-.006-.9-.01-.975,0a.671.671,0,0,1-.344,0c-.314-.111-.425-.553-.459-.688a3.623,3.623,0,0,1,.057-1.72.336.336,0,0,0,0-.287.276.276,0,0,0-.344-.057c-.091.071-.047.243,0,.631.041.344.037.688.057,1.032.034.58.03.622,0,.688-.208.459-.963.512-1.032.516a1.628,1.628,0,0,1-1.605-.917c-.083-.271-.014-.544-.115-.573s-.172.167-.4.4a3.663,3.663,0,0,1-.745.516c-.492.3-.8.459-.8.459-2.54,1.323-3.81,1.984-3.841,2.007C110,137.04,109.742,137.226,109.667,137.162Z" transform="translate(-109.614 -122.94)"/><path class="b" d="M210.514,258.165c.052-.027-.168-.349-.229-.917a5.7,5.7,0,0,1,.115-1.261,1.351,1.351,0,0,0-.459,1.147A1.323,1.323,0,0,0,210.514,258.165Z" transform="translate(-204.154 -248.357)"/><path class="b" d="M334.5,240.988a11.533,11.533,0,0,0-.172,1.777c.025.563.128.955.057.975s-.257-.337-.344-.688a2.048,2.048,0,0,1-.057-.4A2.711,2.711,0,0,1,334.5,240.988Z" transform="translate(-321.085 -234.219)"/><path class="b" d="M440.847,242a1.681,1.681,0,0,1,.287,1.376,1.6,1.6,0,0,1-1.147.975,8.684,8.684,0,0,0,.745-.8,1.636,1.636,0,0,0,.287-.459A1.387,1.387,0,0,0,440.847,242Z" transform="translate(-421.014 -235.174)"/><path class="b" d="M443.016,294.406c-.065-.108-.192-.061-.631-.172a6.808,6.808,0,0,1-.8-.287c-.663-.261-.758-.353-.86-.287-.138.089,0,.284-.057,1.032a1.217,1.217,0,0,0,.057.688.807.807,0,0,0,.229.287c.382.283,1.044.049,1.433-.229C442.791,295.148,443.15,294.63,443.016,294.406Z" transform="translate(-421.634 -283.853)"/><path class="b" d="M362.55,288.1c.122.1.144.263-.057,1.72-.064.459-.08.548-.172.631-.206.185-.49.077-1.433.057-.187,0-.316,0-.573,0-1.188.013-1.37.11-1.548-.057-.2-.191-.216-.553-.229-.975-.006-.18.013-.236,0-.516-.016-.367-.054-.429,0-.516.1-.155.3-.086.8-.172.431-.074.437-.153.917-.229a4.583,4.583,0,0,1,.631-.057c.324-.006.406.028.86.057C362.431,288.089,362.456,288.025,362.55,288.1Z" transform="translate(-344.207 -278.524)"/><path class="b" d="M273.4,286.342c.115-.09.275-.026.8.172a11.744,11.744,0,0,0,1.72.573,2.629,2.629,0,0,0,.917.057,1.667,1.667,0,0,1,.344-.057.506.506,0,0,1,.172,0c.129.057.095.3.115.86.014.4.04.525-.057.688a.444.444,0,0,1-.287.229c-.076.009-.115-.022-.229-.057a1.768,1.768,0,0,0-.4-.057,4.741,4.741,0,0,0-.688,0c-1.4.115-1.686.2-2.007,0a1.179,1.179,0,0,1-.459-.573c-.079-.229-.019-.329,0-.8C273.372,286.667,273.257,286.456,273.4,286.342Z" transform="translate(-263.888 -276.936)"/><path class="b" d="M221.624,286.714c.049-.143.166-.244.745-.516.206-.1.291-.13.516-.229.716-.315.866-.418.975-.344s.057.2.057.573c0,.9.222,1.159,0,1.548a.872.872,0,0,1-.344.344,1.044,1.044,0,0,1-.688.057,1.481,1.481,0,0,1-.975-.459,1.3,1.3,0,0,1-.287-.631A.662.662,0,0,1,221.624,286.714Z" transform="translate(-215.149 -276.276)"/><path class="c" d="M115.933,349.694a19.924,19.924,0,0,1-2.523-.229,7.476,7.476,0,0,1-1.835-.688c-.091-.048-.241-.131-.451-.224-.115-.052-.167-.069-.294-.12-.418-.168-.477-.223-.8-.344-.373-.138-.462-.127-.516-.115a.687.687,0,0,0-.4.344c-.478.794.688,2.981.688,2.981a16.785,16.785,0,0,0,2.58,3.956,12.571,12.571,0,0,0,4.128,3.1,8.6,8.6,0,0,0,1.892.516c.306.04.542.052.688.057,1.746.071,2.786-.1,4.415-.057,1,.029,2.106.137,2.465.172a10.035,10.035,0,0,0,1.663.115,5.81,5.81,0,0,0,2.236-.631,9.475,9.475,0,0,0,3.1-2.637,17.086,17.086,0,0,0,2.293-3.325c.1-.185.011-.027.8-1.835a7.543,7.543,0,0,0,.287-1.319c.019-.11.05-.313-.057-.4s-.253-.029-.344,0c-.3.095-.371.269-.688.516a3.146,3.146,0,0,1-.573.344,3.016,3.016,0,0,1-.745.287,2.642,2.642,0,0,1-1.032,0,5.887,5.887,0,0,1-.975-.287,7.162,7.162,0,0,0-2.293-.287c-.379.026-.7.09-.917-.115-.139-.13-.127-.264-.287-.573a3.037,3.037,0,0,0-.459-.631,9.447,9.447,0,0,0-2.064-1.605,5.726,5.726,0,0,0-1.261-.688,4.874,4.874,0,0,0-.975-.229,6.651,6.651,0,0,0-2.809.172c-.21.061-.924.423-2.351,1.147,0,0-.222.115-1.261.745a2.615,2.615,0,0,0-1.032.917,1.053,1.053,0,0,0-.172.516c0,.212.08.4,0,.459A.136.136,0,0,1,115.933,349.694Z" transform="translate(-109 -332.892)"/><path class="b" d="M323.661,358.922a10.252,10.252,0,0,0-.975,1.032,2.953,2.953,0,0,0-.631,1.261,8.24,8.24,0,0,0,0,1.089c-.061.015-.234-.32-.287-.688a1.9,1.9,0,0,1,.115-.917,2.664,2.664,0,0,1,.516-.86A2.786,2.786,0,0,1,323.661,358.922Z" transform="translate(-309.56 -345.388)"/><path class="b" d="M274.666,430.843a3.273,3.273,0,0,0-.917,1.147,3.484,3.484,0,0,0-.115,1.147,1.469,1.469,0,0,1-.172-1.376A1.537,1.537,0,0,1,274.666,430.843Z" transform="translate(-263.949 -413.181)"/><path class="b" d="M236.768,426a1.1,1.1,0,0,0-.631.573,1.292,1.292,0,0,0-.057.4c-.035.623.043.965,0,.975a1.3,1.3,0,0,1-.229-.745,1.216,1.216,0,0,1,.057-.573A1.232,1.232,0,0,1,236.768,426Z" transform="translate(-228.573 -408.625)"/><path class="b" d="M356.172,445c-.025,0,0,.444-.057,1.2-.057.7-.115.75-.115,1.147a2.875,2.875,0,0,0,.287,1.433,9.347,9.347,0,0,0,0-1.376c0-.591.009-.619,0-.975A8.19,8.19,0,0,0,356.172,445Z" transform="translate(-341.843 -426.535)"/><path class="b" d="M411.975,429.943a4.282,4.282,0,0,1,.86,1.147,6.866,6.866,0,0,1,.287.975,1.665,1.665,0,0,0-.115-1.147A1.776,1.776,0,0,0,411.975,429.943Z" transform="translate(-394.607 -412.338)"/><path class="b" d="M231.447,409.91a.127.127,0,0,0,0,.172c.037.028.1.006.115,0h.688a7.828,7.828,0,0,1,1.032.057c.092.012.367.065.917.172.373.072.512.1.573.115.172.036.434.092.745.172a11.205,11.205,0,0,1,1.147.344,7.584,7.584,0,0,0,.8.287,4,4,0,0,0,.573.115,3.539,3.539,0,0,0,1.319-.115,5.147,5.147,0,0,0,1.147-.516c.411-.222.4-.255.688-.4a4.4,4.4,0,0,1,1.376-.459c.814-.115,1.515.077,1.548-.057.009-.035-.03-.088-.057-.115a.3.3,0,0,0-.229-.057,5.048,5.048,0,0,0-.745,0c-.087.011-.247.033-.631.115a6.643,6.643,0,0,0-.917.229c-.069.027-.085.036-.745.4-.55.3-.613.338-.745.4-.273.13-.509.222-.688.287s-.26.094-.344.115a2.559,2.559,0,0,1-1.032,0,6,6,0,0,1-.745-.172c-.6-.172-.76-.263-1.376-.459-.207-.065-.563-.178-1.032-.287a8.942,8.942,0,0,0-1.319-.229c-.631-.057-.841.007-1.261-.057a3.882,3.882,0,0,1-.688-.057C231.543,409.9,231.483,409.882,231.447,409.91Z" transform="translate(-224.399 -393.165)"/></g></svg>