<svg xmlns="http://www.w3.org/2000/svg" width="21.578" height="21.578" viewBox="0 0 21.578 21.578"><defs><style>.a{fill:#2525ce;}</style></defs><path class="a" d="M10.157,216.262v-2.543h-.32a2.536,2.536,0,1,1,0-5.071h.32v-2.543H6.982a.632.632,0,0,1-.632-.632v-.952a1.271,1.271,0,0,0-2.543,0v.952a.632.632,0,0,1-.632.632H0v8.885a1.273,1.273,0,0,0,1.271,1.271Z" transform="translate(0 -194.684)"/><path class="a" d="M214.991,281.157a1.273,1.273,0,0,0,1.271-1.271V271h-2.543v.32a2.536,2.536,0,0,1-5.071,0V271h-2.543v3.175a.632.632,0,0,1-.632.632h-.952a1.271,1.271,0,0,0,0,2.543h.952a.632.632,0,0,1,.632.632v3.175Z" transform="translate(-194.684 -259.579)"/><path class="a" d="M276.078,13.012a1.273,1.273,0,0,0,1.271-1.271v-.952a.632.632,0,0,1,.632-.632h3.175V1.271A1.273,1.273,0,0,0,279.885,0H271V2.543h.32a2.536,2.536,0,0,1,0,5.071H271v2.543h3.175a.632.632,0,0,1,.632.632v.952A1.273,1.273,0,0,0,276.078,13.012Z" transform="translate(-259.579 0)"/><path class="a" d="M1.271,0A1.273,1.273,0,0,0,0,1.271v8.885H2.543v-.32a2.536,2.536,0,0,1,5.071,0v.32h2.543V6.982a.632.632,0,0,1,.632-.632h.952a1.271,1.271,0,0,0,0-2.543h-.952a.632.632,0,0,1-.632-.632V0Z" transform="translate(0 0)"/></svg>