<svg xmlns="http://www.w3.org/2000/svg" width="23.864" height="23.864" viewBox="0 0 23.864 23.864"><defs><style>.a{fill:#2525ce;}</style></defs><path class="a" d="M213.283,205.569a7.737,7.737,0,0,0-4.243-6.89,10.522,10.522,0,0,1-10.36,10.36,7.716,7.716,0,0,0,10.815,3.171l3.755,1.039-1.039-3.755A7.686,7.686,0,0,0,213.283,205.569Zm0,0" transform="translate(-189.42 -189.42)"/><path class="a" d="M18.224,9.112a9.112,9.112,0,1,0-16.96,4.632L.033,18.19,4.48,16.96A9.114,9.114,0,0,0,18.224,9.112ZM7.714,6.991h-1.4A2.8,2.8,0,1,1,11,9.055L9.811,10.142v1.09h-1.4V9.527l1.642-1.5a1.384,1.384,0,0,0,.455-1.032,1.4,1.4,0,1,0-2.8,0Zm.7,5.64h1.4v1.4h-1.4Zm0,0"/></svg>