<svg xmlns="http://www.w3.org/2000/svg" width="163.931" height="115.289" viewBox="0 0 163.931 115.289"><defs><style>.a{fill:#2f2e41;}.b{fill:#2525ce;}.c{fill:#ffb8b8;}.d{opacity:0.1;}.e{fill:#fff;}.f{fill:#a0616a;}.g{fill:#3f3d56;}</style></defs><g transform="translate(0 -0.017)"><path class="a" d="M684.647,240.361a8.932,8.932,0,0,1-2.411-.333l-32.577-8.72.1-.343,32.577,8.72a8.573,8.573,0,0,0,2.315.32,8.306,8.306,0,0,0,8.269-5.912l23.19-82.7h0l.051-.18a8.6,8.6,0,0,0-5.95-10.575l-52.364-14.684a8.6,8.6,0,0,0-10.584,5.948l-1.819,6.49-.343-.1,1.819-6.49a8.951,8.951,0,0,1,11.023-6.195L710.3,140.3a8.951,8.951,0,0,1,6.241,10.851h0l-.048.171-23.238,82.87A8.663,8.663,0,0,1,684.647,240.361Z" transform="translate(-555.103 -125.264)"/><path class="b" d="M517.776,41.708l.6.167,1.835.514.192-.687-.687-.192.6-2.152,1.451-1.26.386,4.1-1.068-.3-.192.687,2.741.769.192-.687-.582-.162-.559-5.2,2.848-2.476.8.224.192-.687-2.743-.769-.192.687.9.253-3.622,2.846,1-3.579.687.192.192-.687-2.743-.769-.192.687,1.029.288-2.163,7.711-1.029-.288-.027.093-.11.4Z" transform="translate(-425.405 -26.731)"/><path class="b" d="M670.821,228.6a20.787,20.787,0,0,0-2,1c-.119.068-.239.137-.356.206v-2.2a8.329,8.329,0,0,0-.333-2.341c.1-.064.208-.133.312-.2l.285-.19A23.978,23.978,0,0,0,670.821,228.6Z" transform="translate(-574.038 -207.127)"/><path class="b" d="M722.453,572.469l-.8-.224-.192.685,2.742.769.192-.685-.9-.253,3.621-2.847-1,3.581-.685-.192-.192.685,2.742.769.192-.685-1.028-.288,2.163-7.712,1.028.288.192-.686-2.742-.769-.192.685.685.192-.6,2.153-1.45,1.26-.385-4.1,1.068.3.192-.685-2.742-.769-.192.686.583.163.559,5.2Z" transform="translate(-593.047 -463.552)"/><path class="b" d="M885.315,652.483a19.592,19.592,0,0,0,3.642-2.047,30.08,30.08,0,0,0,2.1,3.73,22.378,22.378,0,0,0-3.642,2.047,24.068,24.068,0,0,0-2.1-3.731Z" transform="translate(-752.565 -556.945)"/><path class="c" d="M744.9,453.726s-.9,5.848-1.168,6.143,1.869,7.179,1.869,7.179l6.851-3.994s1.333-7.39,1.772-7.637S744.9,453.726,744.9,453.726Z" transform="translate(-636.161 -395.248)"/><path class="d" d="M744.9,453.726s-.9,5.848-1.168,6.143,1.869,7.179,1.869,7.179l6.851-3.994s1.333-7.39,1.772-7.637S744.9,453.726,744.9,453.726Z" transform="translate(-636.161 -395.248)"/><circle class="c" cx="6.764" cy="6.764" r="6.764" transform="translate(107.272 50.612)"/><path class="e" d="M707.749,486.313l-.589-.535-2.649-3.771s-.3-.2-.592.828l-.288,1.028-2.489.966-5.508,23.6,14.739,4.133,6.07-23.624-2.851-3.018-.316-1.456-4.4,1.8Z" transform="translate(-596.645 -418.483)"/><path class="a" d="M670,510.719l.356.1,22.954,6.436,7.675-25.391a9.008,9.008,0,0,0-3.236-1.648s-2.385-2.7-3.412-2.99-2.166-2.825-2.166-2.825a25.23,25.23,0,0,1-3.266,7.033c-2.065,2.748-5.66,12.278-5.66,12.278l-1.015-17.477,1.139-4.395a8.1,8.1,0,0,0-1.791,1.44,8.912,8.912,0,0,1-2.852,1.6s-5.4,1.445-6.351,1.549a3.93,3.93,0,0,0-1.392.349l-.628,4.323L670,493.552Z" transform="translate(-575.575 -418.358)"/><path class="a" d="M673.133,523.687c-.214,1.419-2.41,7.273-2.41,7.273l-.367.369-.356.358V510a1,1,0,0,1,.356-.247,2.443,2.443,0,0,1,.628-.167l.687.192S673.346,522.267,673.133,523.687Z" transform="translate(-575.575 -441.169)"/><path class="c" d="M775.443,608.675s3.369-6.08,5.919-4.626-1.538,5.484-1.538,5.484Z" transform="translate(-662.25 -518.63)"/><path class="c" d="M679.444,610.522s-6.464-2-6.609-1.483-1.914,3.53-1.4,3.674a39.837,39.837,0,0,1,4.456,1.25c-.048.171,1.912,1.091,1.912,1.091Z" transform="translate(-576.678 -522.847)"/><path class="b" d="M604.118,373.609l-4.114.162-.857-.24-3.43-2.277-1.136,3.4,4.326-.266.857.24,3.557,2.476Z" transform="translate(-488.749 -305.159)"/><path class="a" d="M540.387,507.313l-.632,1.346-9.078-2.492-.178-.518V502.8l.356.139.367.144Z" transform="translate(-436.075 -413.288)"/><path class="e" d="M706.628,616.963a10.151,10.151,0,0,0-2.18-.8c-.048.171-2.909,5.1-2.223,5.292s3.112,1.427,3.112,1.427Z" transform="translate(-601.977 -528.759)"/><path class="a" d="M737.817,536.209l1.2.336s.685.192.74,1.317.985,6.376.546,6.623-.562.027-.316.466.466.316.2.61-.881,9.735-2.871,12.874-2.593,4.634-3.279,4.442l-17.769-4.983s.791-6.988,1.525-6.967,12.751,2.651,12.751,2.651S735.2,535.659,737.817,536.209Z" transform="translate(-613.607 -463.039)"/><path class="a" d="M738.681,393.325l-1.11-.8a9.125,9.125,0,0,1,6.84-.627l-.728-1.295a4.763,4.763,0,0,1,4.309,2.783,20.849,20.849,0,0,1,2.182,5.293l1.323.371-.862.95,1.623,1.647-1.929-.755a5.789,5.789,0,0,1-.99,2.808l-.8,1.11a37,37,0,0,1-.663-4.548l-.315,1.123s-.952-1.358-.763-2.032l-.895.6.01-1.33-4.5.07.958-.822-2.678-.388,1.358-.952s-3.33.641-3.789,1.846a6.71,6.71,0,0,1-2.36,2.367l-.359-1.312S734.951,394.1,738.681,393.325Z" transform="translate(-628.63 -343.362)"/><path class="b" d="M728.56,365.852l.053-.23c.514-2.239-3.442-6.4-3.482-6.445l-.07-.073.027-.1c.078-.279.392-.527,3.143.069,1.071.232,2.139.515,2.586.637-.05-1.278-1.635-2.972-1.652-2.99l-.2-.211.279-.082c1.827-.536,3.966,1.241,4.649,1.87l1.143-4.074,2.261,3.339a4.153,4.153,0,0,1,3.483-1.989l.282.015-.135.248a7.733,7.733,0,0,0-1.132,3.446c2.53-3.006,4.811-2.744,4.91-2.731l.345.046-.24.253a14.887,14.887,0,0,0-3.706,8.164l-.012.156Zm-3.035-6.775c.7.758,3.724,4.179,3.474,6.4l11.767-.64a15.379,15.379,0,0,1,3.507-7.921c-.767.069-2.576.506-4.481,2.941l-.219.279-.093-.342c-.015-.054-.333-1.306.988-3.849a3.951,3.951,0,0,0-3.013,2.039l-.144.24-2.139-3.16-1.1,3.916-.215-.218c-.024-.024-2.319-2.323-4.228-2.049.49.57,1.662,2.073,1.534,3.254l-.023.209-.2-.057A21.914,21.914,0,0,0,725.525,359.077Z" transform="translate(-620.835 -313.456)"/><path class="b" d="M838.255,356.251a.638.638,0,1,1,.787-.442A.639.639,0,0,1,838.255,356.251Zm.249-.887a.282.282,0,1,0,.2.348.283.283,0,0,0-.2-.348Z" transform="translate(-713.498 -314.093)"/><path class="b" d="M813.347,349.267a.638.638,0,1,1,.787-.442.638.638,0,0,1-.787.442Zm.249-.887a.282.282,0,1,0,.2.348.282.282,0,0,0-.2-.348Z" transform="translate(-693.024 -308.352)"/><path class="b" d="M775.483,345.366a.638.638,0,1,1,.787-.442A.638.638,0,0,1,775.483,345.366Zm.249-.887a.282.282,0,1,0,.2.348.282.282,0,0,0-.2-.348Z" transform="translate(-661.899 -305.145)"/><path class="b" d="M715.036,374.091a.638.638,0,1,1,.787-.442A.638.638,0,0,1,715.036,374.091Zm.249-.887a.282.282,0,1,0,.2.348.282.282,0,0,0-.2-.348Z" transform="translate(-612.211 -328.757)"/><path class="b" d="M738.41,357.807a.638.638,0,1,1,.787-.442.638.638,0,0,1-.787.442Zm.249-.887a.282.282,0,1,0,.2.348.282.282,0,0,0-.2-.348Z" transform="translate(-631.425 -315.372)"/><path class="a" d="M564.532,162.72l-.171-.048-33.552-9.408.1-.343,33.381,9.36,21.1-75.237L538.339,73.853l-7.175,25.589-.343-.1,7.272-25.932.171.048L585.822,86.8l-.048.171Z" transform="translate(-436.329 -60.333)"/><path class="a" d="M174.754,697.586c2.212,4.1,6.907,5.864,6.907,5.864s1.108-4.89-1.1-8.993-6.907-5.864-6.907-5.864S172.542,693.483,174.754,697.586Z" transform="translate(-167.344 -588.31)"/><path class="b" d="M148.431,723.766c3.994,2.4,5.532,7.176,5.532,7.176s-4.937.877-8.931-1.526-5.532-7.176-5.532-7.176S144.437,721.363,148.431,723.766Z" transform="translate(-139.5 -615.84)"/><path class="a" d="M339.532,197.219a8.723,8.723,0,0,0-1.436-2.789,8.87,8.87,0,0,0-.742-.849A8.741,8.741,0,0,0,331.146,191H276.763A8.771,8.771,0,0,0,268,199.763v86.067a8.771,8.771,0,0,0,8.763,8.763h54.384a8.771,8.771,0,0,0,8.763-8.763V199.763A8.7,8.7,0,0,0,339.532,197.219Zm.021,88.61a8.417,8.417,0,0,1-8.407,8.407H276.763a8.417,8.417,0,0,1-8.407-8.407V199.763a8.417,8.417,0,0,1,8.407-8.407h54.384a8.386,8.386,0,0,1,6.1,2.624q.131.139.256.283a8.387,8.387,0,0,1,2.054,5.5Z" transform="translate(-245.128 -179.285)"/><path class="b" d="M280.587,235.032c-.01-.023-.022-.044-.033-.067a5.392,5.392,0,0,0,.59-2.54c0-2.759-1.724-4.686-4.193-4.686s-4.193,1.927-4.193,4.686,1.724,4.686,4.193,4.686a3.956,3.956,0,0,0,3.079-1.375,3.4,3.4,0,0,0,2.389,1.455l.083-.818A2.465,2.465,0,0,1,280.587,235.032Zm-3.636,1.258c-1.985,0-3.371-1.589-3.371-3.864s1.386-3.864,3.371-3.864,3.371,1.589,3.371,3.864a4.644,4.644,0,0,1-.376,1.888c-1.227-.746-3.51-.3-3.82-.235l.169.8a5.61,5.61,0,0,1,3.233.139,3.145,3.145,0,0,1-2.578,1.267Z" transform="translate(-249.039 -209.486)"/><path class="b" d="M286.755,289.453a1.426,1.426,0,1,0-2.017,2.017l2.017,2.017,2.017-2.017a1.426,1.426,0,1,0-2.017-2.017Z" transform="translate(-258.543 -259.871)"/><path class="b" d="M614.415,688.412c.01.023.022.044.033.067a5.392,5.392,0,0,0-.59,2.54c0,2.759,1.724,4.686,4.193,4.686s4.193-1.927,4.193-4.686-1.724-4.686-4.193-4.686a3.956,3.956,0,0,0-3.078,1.375,3.4,3.4,0,0,0-2.389-1.455l-.083.818A2.464,2.464,0,0,1,614.415,688.412Zm3.636-1.258c1.985,0,3.371,1.589,3.371,3.864s-1.386,3.864-3.371,3.864-3.371-1.589-3.371-3.864a4.644,4.644,0,0,1,.376-1.888c1.227.746,3.51.3,3.82.235l-.169-.8a5.61,5.61,0,0,1-3.233-.139,3.145,3.145,0,0,1,2.578-1.267Z" transform="translate(-528.309 -586.386)"/><path class="b" d="M630.755,657.083a1.426,1.426,0,0,0,2.017-2.017l-2.017-2.017-2.017,2.017a1.426,1.426,0,0,0,2.017,2.017Z" transform="translate(-541.313 -559.093)"/><path class="a" d="M408.292,445.849a9.413,9.413,0,0,0-7.217-4.285s-4.672-.6-7.668,5.639c-2.793,5.812-6.648,11.424-.621,12.785l1.089-3.389.674,3.641a23.594,23.594,0,0,0,2.579.044c6.455-.208,12.6.061,12.4-2.255C409.269,454.949,410.624,449.789,408.292,445.849Z" transform="translate(-345.079 -385.238)"/><path class="f" d="M429.26,518.6a2.556,2.556,0,0,1-.221,1.347c-.454.793-1.562.912-2.229,1.537a3.744,3.744,0,0,0-.814,2.685,7.422,7.422,0,0,0,.3,2.977,7.238,7.238,0,0,0,.846,1.453q.611.88,1.232,1.752a7.553,7.553,0,0,0,.738.926,6.285,6.285,0,0,0,2.778,1.474,3.472,3.472,0,0,0,2.018.134,3.864,3.864,0,0,0,1.174-.722,6.284,6.284,0,0,0,1.328-1.288,6,6,0,0,0,.812-2.746,59.244,59.244,0,0,0,.391-8.535,2.092,2.092,0,0,0-.163-.907c-.338-.659-1.242-.8-1.718-1.367a2.733,2.733,0,0,1-.42-1.81l.009-1.612a.676.676,0,0,0-.078-.393.666.666,0,0,0-.462-.216,15.588,15.588,0,0,0-3.033-.2c-.823.025-2.4-.044-3.114.415-.646.416.163,1.565.312,2.211A14.394,14.394,0,0,1,429.26,518.6Z" transform="translate(-374.986 -444.034)"/><circle class="f" cx="6.515" cy="6.515" r="6.515" transform="translate(49.648 58.763)"/><path class="e" d="M412.007,562.111a9.524,9.524,0,0,1-1.016-1.973,3.2,3.2,0,0,1-.018-2.179,1.785,1.785,0,0,0-2.173.554,3.937,3.937,0,0,0-.715,2.292,14.956,14.956,0,0,1-.174,2.432c-.391,1.758-1.843,3.2-1.951,5-.106,1.768,1.107,3.309,1.7,4.977a8.3,8.3,0,0,1,.445,3.24,1.3,1.3,0,0,0,.209,1.011,1.155,1.155,0,0,0,.451.243,29.337,29.337,0,0,0,9.039,1.178l5.039.128a1.606,1.606,0,0,0,.89-.149c.452-.277.513-.9.52-1.429.066-4.567-.128-9.133-.322-13.7a29.077,29.077,0,0,0-.493-4.935,1.416,1.416,0,0,0-.616-1.052,1.359,1.359,0,0,0-1.039.069,8.269,8.269,0,0,0-3.873,2.981c-1.034,1.472-1.543,3.237-2.554,4.719-.734,1.076-1.159.138-1.648-.654Z" transform="translate(-358.527 -480.695)"/><path class="a" d="M389.375,546.324c-.128.091-.254.187-.376.288a7.273,7.273,0,0,0-1.21,1.274,10.1,10.1,0,0,0-1.371,2.586,25.038,25.038,0,0,0-1.093,5.044,12.175,12.175,0,0,0-.173,1.9c.037,2.342,1.422,4.512,1.424,6.856,0,.089,0,.176-.007.265a7.7,7.7,0,0,1-.135,1.143c-.1.55-.247,1.093-.392,1.634a15.6,15.6,0,0,1-1.463,3.953c-.071.121-.148.24-.226.356H379.37c.039-.119.08-.237.119-.356q1.274-3.773,2.545-7.543c.26-.769.52-1.541.7-2.332a22.087,22.087,0,0,0,.429-2.96q.294-3.094.386-6.2a7.541,7.541,0,0,1,.279-2.209,7.227,7.227,0,0,1,.886-1.616l1.543-2.323a3.569,3.569,0,0,1,1.029-1.143c.368-.226.806-.308,1.194-.5a6.082,6.082,0,0,0,.7-.465c.58-.411,1.262-.844,1.762-.424a.982.982,0,0,1,.206.237,1.188,1.188,0,0,1,.077.137C391.712,544.969,390.021,545.867,389.375,546.324Z" transform="translate(-336.675 -468.948)"/><path class="a" d="M421.222,669.291H398.14c.125-.114.247-.233.367-.356l.052-.053a8.377,8.377,0,0,0,1.527-3.236l1-2.695a1.393,1.393,0,0,1,.255-.479.79.79,0,0,1,.351-.21,1.36,1.36,0,0,1,.31-.057,3.422,3.422,0,0,1,.45,0q6.213.32,12.417.781l1.6.123c.436.324.867.667,1.278,1.031a11.438,11.438,0,0,1,3.159,4.192c.08.2.153.4.214.6C421.158,669.052,421.192,669.172,421.222,669.291Z" transform="translate(-352.104 -566.613)"/><path class="a" d="M290.8,326.772l-4.736-2.481-6.541,1.015-1.353,5.977,3.369-.13.941-2.2v2.16l1.554-.06.9-3.5.564,3.721,5.526-.113Z" transform="translate(-228.655 -266.555)"/><path class="a" d="M484.068,567.37h-5.212c-.037-.117-.073-.237-.107-.356a28,28,0,0,1-.808-4.037c-.055-.39-.1-.781-.148-1.171-.029-.247-.055-.493-.082-.74a41.3,41.3,0,0,0-1.369-8.154c-.1-.319-.212-.635-.319-.952a11.23,11.23,0,0,1-.463-1.675c-.228-1.3-.057-2.652-.292-3.953-.132-.726-.393-1.365-.552-2.031a4.112,4.112,0,0,1-.117-1.23,2.649,2.649,0,0,1,1.387-.687.731.731,0,0,0,.491-.2.616.616,0,0,0,.082-.363,17.432,17.432,0,0,0-.144-2.511c-.036-.292-.08-.584-.133-.874,0-.014-.005-.027-.007-.041a3.447,3.447,0,0,1,1.4-.189l1.54,0,2.846.009a6.265,6.265,0,0,1,2.6.376,4.136,4.136,0,0,1,1.876,1.922,11.066,11.066,0,0,1,.847,2.593,3.477,3.477,0,0,1,.089.749c.039,2-1.456,4.023-1.606,6.071-.048.664.007,1.333-.053,2s-.238,1.317-.271,1.983c0,.034,0,.069,0,.1a7.136,7.136,0,0,0,.525,2.533c.452,1.269,1,2.5,1.57,3.722.548,1.184,1.111,2.362,1.616,3.562a6.1,6.1,0,0,1,.525,1.76,2.442,2.442,0,0,1-.269,1.422,1.665,1.665,0,0,1-.212.3l0,0c-.016.018-.032.036-.048.052h-5.171Z" transform="translate(-414.95 -464.693)"/><path class="c" d="M538.883,685.9a1.971,1.971,0,0,1-.19.682l-.027.062c-.1.244-.208.484-.317.726-.053.117-.107.237-.162.356H535.24a3.316,3.316,0,0,0,.3-.356c.452-.628.714-1.392,1.175-2.07a1.6,1.6,0,0,1,.215-.256C537.664,684.326,538.93,684.472,538.883,685.9Z" transform="translate(-464.801 -585.046)"/><path class="a" d="M529.856,579.5a3.462,3.462,0,0,0,.094-.356c.021-.094.039-.187.053-.281.094-.621.093-1.257.24-1.867.208-.874.833-1.908.319-2.643a2.794,2.794,0,0,0,1.105-.495.951.951,0,0,0,.3-1.093c-.183-.358-.68-.594-.612-.991a.945.945,0,0,1,.174-.345,2.586,2.586,0,0,0-.045-2.837c-.162-.231-.361-.434-.509-.676a4.037,4.037,0,0,1-.368-.938,17.472,17.472,0,0,0-2.248-4.66,3.09,3.09,0,0,1-.5-.918,3.789,3.789,0,0,1-.039-1.091,7.315,7.315,0,0,0-1.276-4.053c-.057-.089-.116-.176-.174-.263a23.477,23.477,0,0,0-2.6-3.028,1.667,1.667,0,0,0-.915.664,1.975,1.975,0,0,0-.176.662c-.253,1.762-.472,3.535-.643,5.306a12.97,12.97,0,0,0-.071,2.691,4.344,4.344,0,0,0,1.011,2.453c.379.417.86.726,1.271,1.111q.1.093.192.192a6.3,6.3,0,0,1,.785,1.031,8.885,8.885,0,0,1,1.306,5.327,8.63,8.63,0,0,1-.133,1,4.153,4.153,0,0,1-.473,1.353c-.187.308-.432.577-.6.9a1.132,1.132,0,0,0-.082,1.034,2.105,2.105,0,0,1,.735.132,3.119,3.119,0,0,1,1.388,1.059,4.613,4.613,0,0,1,.352.541,6.67,6.67,0,0,1,.352.726c.043.1.084.2.123.3a.3.3,0,0,1,.021.055Z" transform="translate(-453.855 -476.818)"/><path class="b" d="M305.129,402.8l-3.774,1.646-.886.088-4.024-.875.177,3.58,3.934-1.82.886-.088,4.214,1.014Z" transform="translate(-243.681 -331.095)"/><path class="a" d="M366.135,339.188c.039.117.073.237.1.356h1.321a3.293,3.293,0,0,0,.3-.356ZM331.25,261.049v78.495h49.215V261.049Zm48.859,78.139h-48.5V261.4h48.5Zm-13.974,0c.039.117.073.237.1.356h1.321a3.293,3.293,0,0,0,.3-.356Z" transform="translate(-297.12 -236.866)"/><path class="b" d="M415.192,410.928l.03-.153a14.888,14.888,0,0,0-1.364-8.861l-.162-.308.345.049c.1.014,2.365.378,3.99,3.955a7.732,7.732,0,0,0-.16-3.624l-.063-.275.276.061a4.153,4.153,0,0,1,2.817,2.855l3.078-2.6v4.231c.828-.421,3.367-1.554,4.981-.545l.246.154-.249.15c-.021.013-2,1.216-2.4,2.433.463,0,1.568.02,2.662.085,2.81.169,3.045.492,3.045.782v.1l-.087.052c-.05.029-4.984,2.971-5.093,5.266l-.011.236Zm11.141-2.127h-.21l.035-.207c.2-1.172,1.73-2.3,2.355-2.719-1.764-.779-4.594.814-4.624.831l-.266.152V402.79l-2.913,2.465-.074-.269a3.951,3.951,0,0,0-2.351-2.777c.586,2.805-.059,3.925-.088,3.973l-.182.3-.135-.328c-1.177-2.859-2.8-3.768-3.521-4.041a15.379,15.379,0,0,1,1.238,8.574l11.157,3.793c.357-2.2,4.193-4.678,5.071-5.22a21.907,21.907,0,0,0-5.494-.463Z" transform="translate(-364.891 -352.404)"/><path class="b" d="M408.671,388.929a.638.638,0,1,1,.638.638A.638.638,0,0,1,408.671,388.929Zm.356,0a.282.282,0,1,0,.283-.282A.282.282,0,0,0,409.027,388.929Z" transform="translate(-360.761 -341.459)"/><path class="b" d="M434.541,388.929a.638.638,0,1,1,.638.638A.638.638,0,0,1,434.541,388.929Zm.356,0a.282.282,0,1,0,.282-.282A.282.282,0,0,0,434.9,388.929Z" transform="translate(-382.026 -341.459)"/><path class="b" d="M472.052,395.4a.638.638,0,1,1,.638.638.638.638,0,0,1-.638-.638Zm.356,0a.282.282,0,1,0,.282-.282.282.282,0,0,0-.282.282Z" transform="translate(-412.86 -346.776)"/><path class="b" d="M522.5,439.375a.638.638,0,1,1,.638.638A.638.638,0,0,1,522.5,439.375Zm.356,0a.282.282,0,1,0,.282-.282A.282.282,0,0,0,522.854,439.375Z" transform="translate(-454.327 -382.926)"/><path class="b" d="M504.389,417.385a.639.639,0,1,1,.638.638A.638.638,0,0,1,504.389,417.385Zm.356,0a.283.283,0,1,0,.282-.282A.282.282,0,0,0,504.745,417.385Z" transform="translate(-439.441 -364.851)"/><rect class="g" width="161.795" height="0.356" transform="translate(2.136 114.87)"/></g></svg>