<svg xmlns="http://www.w3.org/2000/svg" width="21.441" height="23.175" viewBox="0 0 21.441 23.175"><defs><style>.a{fill:#2525ce;}</style></defs><g transform="translate(4.074)"><path class="a" d="M127.111,0a6.111,6.111,0,1,0,6.111,6.111A6.118,6.118,0,0,0,127.111,0Z" transform="translate(-121)"/></g><g transform="translate(0 13.579)"><path class="a" d="M48.787,302.634A8.711,8.711,0,0,0,42.542,300H39.826a8.711,8.711,0,0,0-6.245,2.634A8.9,8.9,0,0,0,31,308.917a.679.679,0,0,0,.679.679H50.69a.679.679,0,0,0,.679-.679A8.9,8.9,0,0,0,48.787,302.634Z" transform="translate(-29.928 -300)"/><path class="a" d="M48.787,302.634A8.711,8.711,0,0,0,42.542,300H39.826a8.711,8.711,0,0,0-6.245,2.634A8.9,8.9,0,0,0,31,308.917a.679.679,0,0,0,.679.679H50.69a.679.679,0,0,0,.679-.679A8.9,8.9,0,0,0,48.787,302.634Z" transform="translate(-31 -300)"/></g></svg>